<svg width="12" height="12" viewBox="0 0 12 12" fill="none" xmlns="http://www.w3.org/2000/svg">
<path fill-rule="evenodd" clip-rule="evenodd" d="M5.95126 1C3.21662 1 1 3.21621 1 5.94976C1 8.68331 3.21662 10.8995 5.95126 10.8995C8.6859 10.8995 10.9025 8.68331 10.9025 5.94976C10.9025 3.21621 8.6859 1 5.95126 1ZM0 5.94976C0 2.66367 2.6646 0 5.95126 0C9.23792 0 11.9025 2.66367 11.9025 5.94976C11.9025 9.23585 9.23792 11.8995 5.95126 11.8995C2.6646 11.8995 0 9.23585 0 5.94976ZM7.93511 4.07867C8.13342 4.27083 8.1384 4.58738 7.94624 4.78569L6.64802 6.12541L7.94624 7.46513C8.1384 7.66344 8.13342 7.97998 7.93511 8.17215C7.7368 8.36431 7.42026 8.35933 7.22809 8.16102L5.95179 6.84391L4.67548 8.16102C4.48331 8.35933 4.16677 8.36431 3.96846 8.17215C3.77015 7.97998 3.76517 7.66344 3.95733 7.46513L5.25555 6.12541L3.95733 4.78569C3.76517 4.58738 3.77015 4.27083 3.96846 4.07867C4.16677 3.8865 4.48331 3.89148 4.67548 4.08979L5.95179 5.40691L7.22809 4.08979C7.42026 3.89148 7.7368 3.8865 7.93511 4.07867Z" fill="#4F4F4F"/>
</svg>
