<svg width="24" height="24" viewBox="0 0 24 24" fill="none" xmlns="http://www.w3.org/2000/svg">
<path fill-rule="evenodd" clip-rule="evenodd" d="M11.5223 5.5C7.62137 5.5 4.5 8.55751 4.5 12.2794C4.5 16.0013 7.62137 19.0588 11.5223 19.0588C15.4232 19.0588 18.5446 16.0013 18.5446 12.2794C18.5446 8.55751 15.4232 5.5 11.5223 5.5ZM3 12.2794C3 7.68455 6.83818 4 11.5223 4C16.2064 4 20.0446 7.68455 20.0446 12.2794C20.0446 16.8743 16.2064 20.5588 11.5223 20.5588C6.83818 20.5588 3 16.8743 3 12.2794ZM14.3849 9.66008C14.6778 9.95297 14.6778 10.4278 14.3849 10.7207L12.5835 12.5221L14.3849 14.3235C14.6778 14.6164 14.6778 15.0912 14.3849 15.3841C14.092 15.677 13.6171 15.677 13.3242 15.3841L11.5229 13.5828L9.72151 15.3841C9.42861 15.677 8.95374 15.677 8.66085 15.3841C8.36795 15.0912 8.36795 14.6164 8.66085 14.3235L10.4622 12.5221L8.66085 10.7207C8.36795 10.4278 8.36795 9.95297 8.66085 9.66008C8.95374 9.36719 9.42861 9.36719 9.72151 9.66008L11.5229 11.4614L13.3242 9.66008C13.6171 9.36719 14.092 9.36719 14.3849 9.66008Z" fill="#4F4F4F"/>
</svg>
