<svg width="12" height="12" viewBox="0 0 12 12" fill="none" xmlns="http://www.w3.org/2000/svg">
<path fill-rule="evenodd" clip-rule="evenodd" d="M1.64886 0.588322C1.35597 0.295429 0.881095 0.295429 0.588201 0.588322C0.295308 0.881216 0.295308 1.35609 0.588201 1.64898L4.9035 5.96428L0.46967 10.3981C0.176777 10.691 0.176777 11.1659 0.46967 11.4588C0.762563 11.7517 1.23744 11.7517 1.53033 11.4588L5.96416 7.02494L10.2785 11.3393C10.5714 11.6322 11.0463 11.6322 11.3391 11.3393C11.632 11.0464 11.632 10.5715 11.3391 10.2786L7.02482 5.96428L11.2206 1.76849C11.5135 1.47559 11.5135 1.00072 11.2206 0.707828C10.9277 0.414935 10.4529 0.414935 10.16 0.707828L5.96416 4.90362L1.64886 0.588322Z" fill="#0D4B7E"/>
</svg>
